HIERARCHY
ROOT hip
{
	OFFSET 0.000000 0.000000 0.000000 
	CHANNELS 6 Xposition Yposition Zposition Xrotation Zrotation Yrotation
	JOINT abdomen
	{
		OFFSET 0.000000 3.402643 0.000000 
		CHANNELS 3 Xrotation Zrotation Yrotation
		JOINT chest
		{
			OFFSET 0.000000 8.438565 -0.680529 
			CHANNELS 3 Xrotation Zrotation Yrotation
			JOINT neck
			{
				OFFSET 0.000000 10.207942 -0.272212 
				CHANNELS 3 Xrotation Zrotation Yrotation
				JOINT head
				{
					OFFSET 0.000000 3.130431 0.000000 
					CHANNELS 3 Xrotation Zrotation Yrotation
					End Site
					{
						OFFSET 0.000000 3.130435 0.000000 
					}
				}
			}
			JOINT lCollar
			{
				OFFSET 3.470700 6.669187 -0.816635 
				CHANNELS 3 Yrotation Zrotation Xrotation
				JOINT lShldr
				{
					OFFSET 3.198488 0.000000 0.000000 
					CHANNELS 3 Zrotation Yrotation Xrotation
					JOINT lForeArm
					{
						OFFSET 10.139888 0.000000 0.000000 
						CHANNELS 3 Yrotation Zrotation Xrotation
						JOINT lHand
						{
							OFFSET 8.370511 0.000000 0.000000 
							CHANNELS 3 Zrotation Yrotation Xrotation
							End Site
							{
								OFFSET 4.083176 0.000000 0.000000 
							}
						}
					}
				}
			}
			JOINT rCollar
			{
				OFFSET -3.470700 6.669187 -0.816635 
				CHANNELS 3 Yrotation Zrotation Xrotation
				JOINT rShldr
				{
					OFFSET -3.198488 0.000000 0.000000 
					CHANNELS 3 Zrotation Yrotation Xrotation
					JOINT rForeArm
					{
						OFFSET -10.139888 0.000000 0.000000 
						CHANNELS 3 Yrotation Zrotation Xrotation
						JOINT rHand
						{
							OFFSET -8.370511 0.000000 0.000000 
							CHANNELS 3 Zrotation Yrotation Xrotation
							End Site
							{
								OFFSET -4.083176 0.000000 0.000000 
							}
						}
					}
				}
			}
		}
	}
	JOINT lThigh
	{
		OFFSET 5.308129 -1.633274 1.361059 
		CHANNELS 3 Xrotation Zrotation Yrotation
		JOINT lShin
		{
			OFFSET -2.041588 -20.007561 0.000000 
			CHANNELS 3 Xrotation Zrotation Yrotation
			JOINT lFoot
			{
				OFFSET 0.000000 -19.190928 -1.224953 
				CHANNELS 3 Xrotation Yrotation Zrotation
				End Site
				{
					OFFSET 0.000000 -2.449906 4.627600 
				}
			}
		}
	}
	JOINT rThigh
	{
		OFFSET -5.308129 -1.633274 1.361059 
		CHANNELS 3 Xrotation Zrotation Yrotation
		JOINT rShin
		{
			OFFSET 2.041588 -20.007561 0.000000 
			CHANNELS 3 Xrotation Zrotation Yrotation
			JOINT rFoot
			{
				OFFSET 0.000000 -19.190928 -1.224953 
				CHANNELS 3 Xrotation Yrotation Zrotation
				End Site
				{
					OFFSET 0.000000 -2.449906 4.627600 
				}
			}
		}
	}
}
MOTION
Frames: 14
Frame Time: 0.033333
204.926132 45.931232 198.388550 3.450050 2.300515 -116.472389 32.398354 1.359833 -3.171025 -20.839844 0.000000 0.000000 -75.808907 -31.309355 -27.934784 8.603516 0.000000 0.000000 -4.754609 -0.109183 -0.002653 -77.574936 -5.143791 -13.516140 -28.125137 4.243501 6.932185 -13.362662 -18.238634 23.573380 4.754609 0.109183 -0.002672 69.350502 5.281519 -7.163376 66.579941 5.238709 2.083473 19.338575 -14.492820 -2.079650 -26.369801 16.011171 1.329905 36.225994 -0.315107 -10.337466 -12.035429 -5.607984 -7.537096 -12.811716 -14.334339 -15.488422 38.444851 12.863093 -5.750441 -23.749575 2.750710 3.985706 
205.117508 46.056660 198.216644 3.234609 2.106018 -118.259628 32.354221 0.935010 -2.941822 -20.839844 0.000000 0.000000 -75.714279 -31.341095 -28.221312 8.603516 0.000000 0.000000 -4.754609 -0.109183 -0.002653 -78.061928 -4.269994 -14.345901 -27.394600 5.180007 7.356701 -13.825607 -18.568151 25.660616 4.754609 0.109183 -0.002672 63.568047 6.635367 -8.434133 77.231018 5.843516 -0.986063 19.249393 -14.393147 -5.335985 -25.131996 16.901005 2.380146 35.037712 -0.993745 -9.651239 -11.538654 -5.647502 -7.843163 -12.994412 -13.938516 -15.003745 37.817047 12.546421 -5.309232 -23.036856 3.379920 3.504811 
205.281906 46.167095 198.031265 2.813764 1.716679 -120.052101 32.216591 0.306989 -2.556397 -20.839844 0.000000 0.000000 -75.865921 -31.545511 -28.345718 8.603516 0.000000 0.000000 -4.754609 -0.109183 -0.002653 -78.385963 -4.023324 -13.874640 -26.059067 6.475473 8.076253 -13.981202 -19.432947 26.139967 4.754609 0.109183 -0.002672 56.221859 10.161058 -10.780626 83.870735 4.720171 -3.255402 18.159168 -13.835654 -7.334191 -23.739901 17.372841 3.372741 33.821323 -1.648320 -8.834610 -11.069602 -5.525231 -8.146071 -13.032852 -14.083822 -14.945873 37.400723 12.382133 -4.666007 -22.459995 4.419566 2.931400 
205.430832 46.242046 197.852371 2.031661 1.151620 -121.589828 31.996159 -0.623201 -2.106596 -20.839844 0.000000 0.000000 -76.300751 -32.101643 -28.354368 8.603516 0.000000 0.000000 -4.754609 -0.109183 -0.002653 -78.262733 -4.332343 -11.770535 -24.485405 7.782478 9.194866 -13.248610 -20.525354 24.000078 4.754609 0.109183 -0.002672 47.204212 14.244258 -14.700240 87.182068 2.485187 -4.551098 16.531313 -12.835062 -8.375185 -22.410034 17.283358 4.242050 32.630157 -2.355322 -7.921905 -10.583199 -5.476702 -8.364697 -13.173597 -14.921320 -15.243059 37.460423 12.324174 -3.842119 -22.207678 5.614985 2.421873 
205.587234 46.292515 197.692963 0.849636 0.449169 -122.620216 31.658907 -1.889424 -1.750636 -20.839844 0.000000 0.000000 -76.980133 -33.010590 -28.387053 8.603516 0.000000 0.000000 -4.754609 -0.109183 -0.002653 -77.615562 -4.900333 -9.278951 -23.361774 8.531262 10.405033 -12.049026 -21.351751 20.736950 4.754609 0.109183 -0.002672 36.410927 17.265249 -20.288807 87.501663 -0.387368 -5.602501 14.559426 -11.451275 -9.358046 -21.315052 16.608395 4.938212 31.289688 -3.141298 -6.906863 -9.912465 -5.607915 -8.494241 -13.522003 -16.349766 -15.774639 37.886368 12.293110 -2.959008 -22.081663 6.751365 1.947421 
205.771622 46.353481 197.542038 -0.673836 -0.283184 -123.033783 31.184475 -3.427176 -1.612377 -20.839844 0.000000 0.000000 -77.818611 -34.173885 -28.500431 8.603516 0.000000 0.000000 -4.754609 -0.109183 -0.002653 -76.463844 -5.444471 -7.725923 -23.052195 8.392585 11.160973 -11.269681 -21.747267 18.243378 4.754609 0.109183 -0.002672 24.442545 17.928988 -26.844122 85.073517 -3.377270 -7.532647 12.407928 -10.035667 -11.427871 -20.426743 15.485645 5.560207 29.571106 -3.975602 -5.894320 -9.062909 -6.006817 -8.496415 -13.991106 -18.195343 -16.519541 38.307514 12.293815 -2.203448 -21.834316 7.752890 1.478177 
205.986496 46.465420 197.374146 -2.383145 -0.956204 -122.880127 30.629269 -5.129777 -1.734848 -20.839844 0.000000 0.000000 -78.755882 -35.445587 -28.651287 8.603516 0.000000 0.000000 -4.754609 -0.109183 -0.002653 -75.168236 -5.866255 -7.953619 -23.496786 7.679561 10.961492 -11.668441 -21.818485 17.942440 4.754609 0.109183 -0.002672 12.652098 15.765668 -32.889095 79.970032 -5.922698 -11.068679 10.603256 -8.562735 -15.173455 -19.638956 14.258137 6.372094 27.530542 -4.991742 -4.772726 -8.550427 -6.958145 -8.393379 -14.411269 -20.079556 -17.310869 38.370453 12.272209 -1.753575 -21.351639 8.440393 1.062883 
206.218369 46.648800 197.165283 -4.093257 -1.529294 -122.419914 30.047928 -6.820317 -1.962110 -20.839844 0.000000 0.000000 -79.794891 -36.680069 -28.662657 8.603516 0.000000 0.000000 -4.754609 -0.109183 -0.002653 -74.316818 -6.006788 -10.370277 -24.481892 6.979829 9.716826 -13.374360 -21.555035 20.821228 4.754609 0.109183 -0.002672 2.115280 11.476287 -37.173492 72.378616 -7.460038 -15.854595 9.701434 -6.456596 -19.956749 -18.622511 13.241693 7.803818 24.980000 -6.190607 -3.495596 -8.286525 -8.752457 -8.335752 -14.735925 -21.560955 -17.802689 37.936008 12.049570 -1.607079 -20.786200 8.580912 0.762618 
206.454224 46.888165 196.895935 -5.638286 -2.021431 -121.978325 29.517912 -8.383517 -2.185309 -20.839844 0.000000 0.000000 -81.045418 -37.713108 -28.306103 8.603516 0.000000 0.000000 -4.754609 -0.109183 -0.002653 -73.922401 -5.702123 -13.878328 -25.711004 6.569699 8.339322 -15.381122 -21.138611 25.581903 4.754609 0.109183 -0.002672 -7.156450 6.825978 -39.530792 61.731857 -7.326469 -20.699450 9.404925 -2.991719 -24.273968 -17.057856 12.575361 9.812653 21.138119 -7.338024 -1.836750 -4.844636 -11.079931 -11.716032 -14.940981 -22.487965 -17.835939 37.083595 11.589568 -1.635913 -20.332928 8.269231 0.592650 
206.691589 47.159996 196.569153 -6.959839 -2.510683 -121.715393 29.118309 -9.765409 -2.398571 -20.839844 0.000000 0.000000 -82.584480 -38.382515 -27.563616 8.603516 0.000000 0.000000 -4.754609 -0.109183 -0.002653 -73.394493 -4.829617 -16.573313 -26.861223 6.274751 7.873581 -16.428465 -21.094143 29.278490 4.754609 0.109183 -0.002672 -16.576868 3.893899 -40.606094 45.904716 -4.570104 -24.108847 8.929647 2.429088 -27.350595 -14.995330 11.664508 11.692805 16.332809 -7.821518 0.693943 -0.590167 -12.790155 -15.904285 -14.930706 -23.033653 -17.764292 35.999306 11.114403 -1.696134 -20.061275 7.934928 0.358712 
206.944931 47.453323 196.210342 -8.097089 -2.997219 -121.624649 28.887480 -10.983118 -2.713894 -20.839844 0.000000 0.000000 -84.350456 -38.596828 -26.511765 8.603516 0.000000 0.000000 -4.754609 -0.109183 -0.002653 -72.411331 -3.535836 -17.867161 -27.727108 5.906435 8.349669 -16.544569 -21.532825 30.910021 4.754609 0.109183 -0.002672 -26.790133 5.281820 -40.258965 22.879759 -1.326939 -22.912203 9.768971 13.199459 -31.750988 -13.681506 10.536999 12.524437 12.611094 -7.784273 3.151608 4.284939 -13.044647 -18.541008 -14.559731 -23.463461 -18.018953 34.637093 10.920947 -1.848929 -19.769855 8.135707 -0.003564 
207.233261 47.761642 195.862045 -9.127751 -3.423002 -121.745689 28.782188 -12.028050 -3.149778 -20.839844 0.000000 0.000000 -86.198746 -38.316643 -25.226734 8.603516 0.000000 0.000000 -4.754609 -0.109183 -0.002653 -71.341293 -2.276252 -18.514902 -28.232283 5.650572 9.070408 -16.608440 -22.127253 31.710814 4.754609 0.109183 -0.002672 -34.694542 8.979853 -40.998474 -2.049749 -0.044162 -20.477526 9.479307 16.186298 -36.329784 -13.895511 9.461981 11.881363 11.019358 -7.334440 4.244067 10.718814 -12.723173 -20.780476 -13.866108 -24.006990 -18.967443 33.012810 11.208956 -2.138977 -19.423645 9.255115 -0.576788 
207.553574 48.040970 195.570709 -10.109424 -3.720787 -122.188782 28.781563 -12.863931 -3.528551 -20.839844 0.000000 0.000000 -88.008133 -37.552498 -23.605263 8.603516 0.000000 0.000000 -4.754609 -0.109183 -0.002653 -70.633369 -1.412511 -19.164335 -28.262623 5.739367 9.407240 -17.006102 -22.608376 32.618149 4.754609 0.109183 -0.002672 -32.276398 4.089897 -38.115353 2.096570 -0.119583 -22.335964 7.531100 9.788901 -38.611023 -14.592364 8.236229 10.212729 10.336316 -6.797566 3.828490 14.894176 -12.207093 -22.827999 -13.192969 -24.849915 -20.692886 31.479868 12.000072 -2.367447 -18.959621 11.471255 -1.023192 
207.869888 48.231361 195.363846 -11.049809 -3.786119 -123.177559 28.820803 -13.276465 -3.593207 -20.839844 0.000000 0.000000 -89.792564 -36.330318 -21.571018 8.603516 0.000000 0.000000 -4.754609 -0.109183 -0.002653 -70.552307 -0.991624 -19.712173 -27.791182 6.114114 9.062821 -17.398647 -22.804724 33.052258 4.754609 0.109183 -0.002672 -30.487392 2.069205 -36.485752 1.636965 -0.113205 -22.420294 6.897176 4.521145 -39.128708 -16.479582 7.370076 8.532933 12.393635 -6.669296 2.030697 15.015753 -12.130012 -23.613312 -13.173500 -25.909660 -22.511889 30.656200 12.994051 -2.101172 -17.831835 14.235671 -0.262391 
